<?xml version="1.0" encoding="UTF-8"?>
<svg id="Warstwa_1" data-name="Warstwa 1" xmlns="http://www.w3.org/2000/svg" viewBox="0 0 536.26 93.3">
  <defs>
    <style>
      .cls-1 {
        fill: #2563eb;
      }

      .cls-1, .cls-2 {
        stroke-width: 0px;
      }

      .cls-2, .cls-3 {
        fill: #1e3a8a;
      }

      .cls-3 {
        stroke: #1e3a8a;
        stroke-miterlimit: 10;
        stroke-width: .75px;
      }
    </style>
  </defs>
  <g>
    <g>
      <path class="cls-2" d="m0,86.55l8.31-51.84h19.09l6.36,21.89c.1.48.24,1.25.43,2.3.19,1.06.34,2.06.43,3.02v1.8l.43-4.03c.19-1.54.38-2.57.57-3.1l6.25-21.89h19.04l8.26,51.84h-18.72l-1.66-20.02v-10.08l-.21,1.44-.55,2.88-.97,5.18v.43l-5.78,20.16h-13.43l-5.7-20.16-.07-.29-1.01-5.33-.43-2.16-.43-2.16.14,1.8v3.13c0,.98.02,1.91.07,2.77v1.58c-.1.38-.14.65-.14.79l-1.58,20.02H0Z"/>
      <path class="cls-2" d="m69.98,60.59c0-7.72,2.68-14.15,8.03-19.31,5.35-5.15,12.23-7.73,20.63-7.73,3.98,0,7.85.7,11.59,2.09,5.23,1.92,9.4,5.15,12.49,9.71,3.1,4.55,4.64,9.64,4.64,15.24,0,3.64-.72,7.17-2.16,10.57-1.44,3.4-3.44,6.34-6.01,8.81-2.57,2.47-5.56,4.33-8.96,5.57-4.13,1.48-8.18,2.23-12.17,2.23-7.82,0-14.46-2.6-19.91-7.8-5.45-5.2-8.17-11.66-8.17-19.38Zm24.7,9.04c1.3.58,2.64.86,4.03.86,2.02,0,3.85-.56,5.51-1.69,1.66-1.13,2.84-2.63,3.56-4.5.43-1.15.65-2.38.65-3.67,0-2.06-.5-3.89-1.51-5.47-1.01-1.58-2.42-2.76-4.25-3.53-1.39-.58-2.76-.86-4.1-.86-1.97,0-3.78.56-5.44,1.69-1.66,1.13-2.84,2.63-3.56,4.5-.48,1.1-.72,2.33-.72,3.67,0,2.02.53,3.83,1.58,5.44,1.06,1.61,2.47,2.8,4.25,3.56Z"/>
      <path class="cls-2" d="m128.59,51.27l.58-16.56h41.83l-4.82,16.56h-8.57v35.28h-19.15v-35.28h-9.86Z"/>
    </g>
    <g>
      <path class="cls-2" d="m276.68,81.61l5.04-15.29c.67.62,1.2,1.08,1.58,1.37.38.29,1.3.91,2.74,1.87,2.83,1.63,4.84,2.57,6.01,2.81,1.18.24,2.17.36,2.99.36,1.3,0,2.23-.28,2.81-.83.58-.55.86-1.16.86-1.84,0-.77-.34-1.34-1.01-1.73-.29-.19-.67-.36-1.15-.5-.48-.14-1.2-.31-2.16-.5l-1.44-.36-1.87-.5-1.51-.43c-3.65-1.15-6.48-2.95-8.5-5.4-2.02-2.45-3.02-5.26-3.02-8.42,0-1.73.31-3.47.94-5.22.62-1.75,1.61-3.52,2.95-5.29,1.87-2.4,4.31-4.28,7.31-5.65,3-1.37,6.4-2.05,10.19-2.05,1.82,0,3.6.14,5.33.43s3.66.8,5.8,1.55c2.14.74,4.19,1.76,6.16,3.06l-4.18,13.46-1.44-.94c-1.97-1.25-3.76-2.15-5.36-2.7-1.61-.55-3.04-.83-4.28-.83-1.54,0-2.64.38-3.31,1.15-.43.53-.65,1.03-.65,1.51,0,.67.33,1.15,1.01,1.44.58.34,1.56.67,2.95,1.01l3.02.86.86.22,1.58.43,1.73.5c3.12.96,5.57,2.59,7.34,4.89,1.78,2.3,2.66,5.03,2.66,8.19,0,1.58-.26,3.31-.79,5.17-1.2,4.27-3.74,7.73-7.63,10.39-3.89,2.66-8.5,3.99-13.82,3.99-3.74,0-7.68-.74-11.81-2.22-2.78-1-5.42-2.32-7.92-3.94Z"/>
      <path class="cls-2" d="m322.91,86.55v-51.84h25.56c4.94,0,9.05,1.29,12.31,3.88,3.26,2.59,5.38,6.23,6.34,10.92.34,1.63.5,3.28.5,4.96,0,5.13-1.55,9.26-4.64,12.4-3.1,3.14-7.07,4.71-11.92,4.71h-9v14.98h-19.15Zm22.25-28.22c2.59,0,4.1-1.06,4.54-3.17.14-.72.22-1.37.22-1.94,0-1.87-.74-3.12-2.23-3.74-.24-.1-.55-.17-.94-.22-.38-.05-1.03-.07-1.94-.07h-2.74v9.14h3.1Z"/>
      <path class="cls-2" d="m370.93,86.55v-51.84h19.15v36.94h19.94l-4.18,14.9h-34.92Z"/>
      <path class="cls-2" d="m411.11,60.59c0-7.72,2.68-14.15,8.03-19.31,5.35-5.15,12.23-7.73,20.63-7.73,3.98,0,7.85.7,11.59,2.09,5.23,1.92,9.4,5.15,12.49,9.71,3.1,4.55,4.64,9.64,4.64,15.24,0,3.64-.72,7.17-2.16,10.57-1.44,3.4-3.44,6.34-6.01,8.81-2.57,2.47-5.56,4.33-8.96,5.57-4.13,1.49-8.18,2.23-12.17,2.23-7.82,0-14.46-2.6-19.91-7.8-5.45-5.2-8.17-11.66-8.17-19.38Zm24.7,9.04c1.3.58,2.64.86,4.03.86,2.02,0,3.85-.56,5.51-1.69,1.66-1.13,2.84-2.63,3.56-4.5.43-1.15.65-2.38.65-3.67,0-2.06-.5-3.89-1.51-5.47-1.01-1.58-2.42-2.76-4.25-3.53-1.39-.58-2.76-.86-4.1-.86-1.97,0-3.78.56-5.44,1.69-1.66,1.13-2.84,2.63-3.56,4.5-.48,1.1-.72,2.33-.72,3.67,0,2.02.53,3.83,1.58,5.44,1.06,1.61,2.47,2.8,4.25,3.56Z"/>
      <path class="cls-2" d="m469.71,51.27l.58-16.56h41.83l-4.82,16.56h-8.57v35.28h-19.15v-35.28h-9.86Z"/>
    </g>
  </g>
  <path class="cls-1" d="m215.64,79.35c1.27.27,2.08,1.52,1.82,2.79-.23,1.11-1.21,1.87-2.3,1.87-.16,0-.32-.02-.49-.05-13.72-2.89-24.45-13.63-27.35-27.35-.27-1.27.55-2.52,1.82-2.79,1.27-.27,2.52.55,2.79,1.82,2.51,11.9,11.82,21.21,23.71,23.71Zm8.73-30.09c0-1.3-1.05-2.35-2.35-2.35h0c-1.3,0-2.35,1.05-2.35,2.35s1.06,2.35,2.36,2.35,2.35-1.05,2.35-2.35ZM278.11,2.35v28.65c0,1.3-1.05,2.35-2.35,2.35s-2.35-1.05-2.35-2.35v-2.86h-36.48l-7.98,13.81c1.39,1.32,2.41,3.03,2.87,4.96h11.32v-11.2c0-1.3,1.05-2.35,2.35-2.35s2.35,1.05,2.35,2.35v13.49s0,.05,0,.07c0,7.73-3.41,14.67-8.8,19.41-.05.06-.11.11-.18.17-2.13,1.83-4.53,3.29-7.09,4.34-2.98,1.22-6.24,1.9-9.65,1.91,0,0,0,0-.01,0,0,0-.01,0-.02,0,0,0-.01,0-.02,0,0,0-.01,0-.02,0h-.02s-.02,0-.02,0h0c-4.64,0-9.01-1.23-12.78-3.39-.04-.02-.09-.05-.13-.07-.05-.03-.09-.06-.14-.08-7.64-4.49-12.78-12.8-12.78-22.28s5.14-17.79,12.78-22.28c.04-.03.09-.06.14-.08.04-.03.09-.05.13-.07,3.77-2.16,8.13-3.39,12.78-3.39.19,0,.37.02.55.06.18-.04.36-.06.55-.06h12.42s.06,0,.09,0h37.79v-13.51h-50.3c-.19,0-.37-.02-.54-.06-.17.04-.36.06-.54.06-21.7,0-39.34,17.65-39.34,39.34s17.65,39.34,39.34,39.34c15.14,0,29.11-8.85,35.59-22.55.11-.23.25-.43.41-.61,2.22-4.89,3.46-10.32,3.48-16.02,0-.02,0-.04,0-.06v-13.65c0-1.3,1.05-2.35,2.35-2.35s2.35,1.05,2.35,2.35v13.49s0,.05,0,.07c0,24.29-19.76,44.04-44.04,44.04h-.14c-24.29,0-44.04-19.76-44.04-44.04S197.74,5.21,222.02,5.21c.19,0,.37.02.55.06.18-.04.36-.06.55-.06h50.29v-2.86c0-1.3,1.05-2.35,2.35-2.35s2.35,1.05,2.35,2.35Zm-77.08,44.55h11.19c.46-1.92,1.48-3.64,2.87-4.96l-5.59-9.69c-4.62,3.41-7.8,8.65-8.46,14.64Zm8.46,19.35l5.59-9.69c-1.39-1.32-2.41-3.03-2.87-4.96h-11.19c.67,5.99,3.85,11.23,8.46,14.64Zm20.99,2.36l-5.59-9.69c-.91.27-1.87.41-2.86.41s-1.96-.14-2.86-.41l-5.59,9.69c2.59,1.14,5.45,1.77,8.46,1.77h.05s.01,0,.02,0c0,0,.01,0,.02,0h0c2.68-.01,5.31-.53,7.76-1.51.2-.08.41-.17.61-.25Zm-8.46-13.98c2.96,0,5.37-2.41,5.37-5.38s-2.41-5.38-5.37-5.38-5.38,2.41-5.38,5.38,2.41,5.38,5.38,5.38Zm6.94,1.93l5.59,9.69c4.61-3.41,7.8-8.65,8.46-14.64h-11.19c-.46,1.92-1.48,3.64-2.87,4.96Zm2.54-28.43h-8.39c-.19,0-.37-.02-.54-.06-.17.04-.36.06-.54.06-3.01,0-5.87.63-8.46,1.77l5.59,9.69c.91-.27,1.87-.41,2.86-.41s1.96.14,2.86.41l6.61-11.46Z"/>
  <g>
    <path class="cls-1" d="m287.49,10.17h6c.98,0,1.92-.86,1.88-1.88s-.82-1.88-1.88-1.88h-6c-.98,0-1.92.86-1.88,1.88s.82,1.88,1.88,1.88h0Z"/>
    <path class="cls-1" d="m299.48,10.18h15c2.41,0,2.42-3.75,0-3.75h-15c-2.41,0-2.42,3.75,0,3.75h0Z"/>
    <path class="cls-1" d="m320.09,10.17h1c.26,0,.5-.04.72-.16.23-.08.43-.2.6-.39.18-.17.31-.37.39-.6.12-.22.17-.46.16-.72l-.07-.5c-.09-.32-.25-.59-.48-.83l-.38-.29c-.29-.17-.61-.25-.95-.26h-1c-.26,0-.5.04-.72.16-.23.08-.43.2-.6.39-.18.17-.31.37-.39.6-.12.22-.17.46-.16.72l.07.5c.09.32.25.59.48.83l.38.29c.29.17.61.25.95.26h0Z"/>
    <path class="cls-1" d="m291.32,16.45h1c.26,0,.5-.04.72-.16.23-.08.43-.2.6-.39.18-.17.31-.37.39-.6.12-.22.17-.46.16-.72l-.07-.5c-.09-.32-.25-.59-.48-.83l-.38-.29c-.29-.17-.61-.25-.95-.26h-1c-.26,0-.5.04-.72.16-.23.08-.43.2-.6.39-.18.17-.31.37-.39.6-.12.22-.17.46-.16.72l.07.5c.09.32.25.59.48.83l.38.29c.29.17.61.25.95.26h0Z"/>
    <path class="cls-1" d="m298.07,16.39h6c.98,0,1.92-.86,1.88-1.88s-.82-1.88-1.88-1.88h-6c-.98,0-1.92.86-1.88,1.88s.82,1.88,1.88,1.88h0Z"/>
    <path class="cls-1" d="m309.56,16.39h3c.48,0,.99-.21,1.33-.55s.57-.86.55-1.33-.18-.99-.55-1.33-.82-.55-1.33-.55h-3c-.48,0-.99.21-1.33.55s-.57.86-.55,1.33.18.99.55,1.33.82.55,1.33.55h0Z"/>
    <path class="cls-1" d="m284.7,22.62h15c2.41,0,2.42-3.75,0-3.75h-15c-2.41,0-2.42,3.75,0,3.75h0Z"/>
    <path class="cls-1" d="m305.01,22.64h1c.26,0,.5-.04.72-.16.23-.08.43-.2.6-.39.18-.17.31-.37.39-.6.12-.22.17-.46.16-.72l-.07-.5c-.09-.32-.25-.59-.48-.83l-.38-.29c-.29-.17-.61-.25-.95-.26h-1c-.26,0-.5.04-.72.16-.23.08-.43.2-.6.39-.18.17-.31.37-.39.6-.12.22-.17.46-.16.72l.07.5c.09.32.25.59.48.83l.38.29c.29.17.61.25.95.26h0Z"/>
    <path class="cls-1" d="m311.43,22.64h6c.98,0,1.92-.86,1.88-1.88s-.82-1.88-1.88-1.88h-6c-.98,0-1.92.86-1.88,1.88s.82,1.88,1.88,1.88h0Z"/>
    <path class="cls-1" d="m289.38,28.84h1c.26,0,.5-.04.72-.16.23-.08.43-.2.6-.39.18-.17.31-.37.39-.6.12-.22.17-.46.16-.72l-.07-.5c-.09-.32-.25-.59-.48-.83l-.38-.29c-.29-.17-.61-.25-.95-.26h-1c-.26,0-.5.04-.72.16-.23.08-.43.2-.6.39-.18.17-.31.37-.39.6-.12.22-.17.46-.16.72l.07.5c.09.32.25.59.48.83l.38.29c.29.17.61.25.95.26h0Z"/>
    <path class="cls-1" d="m296.13,28.78h6c.98,0,1.92-.86,1.88-1.88s-.82-1.88-1.88-1.88h-6c-.98,0-1.92.86-1.88,1.88s.82,1.88,1.88,1.88h0Z"/>
    <path class="cls-1" d="m307.62,28.78h3c.48,0,.99-.21,1.33-.55s.57-.86.55-1.33-.18-.99-.55-1.33-.82-.55-1.33-.55h-3c-.48,0-.99.21-1.33.55s-.57.86-.55,1.33.18.99.55,1.33.82.55,1.33.55h0Z"/>
  </g>
  <path class="cls-3" d="m535.88,29.51c0,4.85-3.72,8.74-8.49,8.74s-8.57-3.89-8.57-8.74,3.78-8.69,8.57-8.69,8.49,3.89,8.49,8.69Zm-15.66.08c0,4.2,3.1,7.5,7.16,7.5s7.08-3.3,7.08-7.59-3.1-7.53-7.08-7.53-7.16,3.33-7.16,7.62Zm10.61-3.3c-.37-.2-1.41-.65-2.74-.65-2.65,0-3.95,1.69-3.95,3.95s1.38,3.98,3.98,3.98c1.13,0,2.2-.31,2.85-.73l.34,1.07c-.99.65-2.28.88-3.47.88-3.27,0-5.16-2.26-5.16-5.11,0-3.22,2.54-5.25,5.39-5.25,1.47,0,2.74.42,3.1.76l-.34,1.1Z"/>
</svg>